<svg xmlns="http://www.w3.org/2000/svg" width="188" height="61" viewBox="0 0 188 61">
  <g id="Group_88" data-name="Group 88" transform="translate(-1474 -190)">
    <g id="Group_70" data-name="Group 70" transform="translate(0 -56)">
      <rect id="Rectangle_37" data-name="Rectangle 37" width="188" height="61" rx="12" transform="translate(1474 246)" fill="#ffb80e"/>
      <text id="Add_New" data-name="Add New" transform="translate(1549 283)" fill="#fff" font-size="18" font-family="Poppins-Bold, Poppins" font-weight="700"><tspan x="0" y="0">Add New</tspan></text>
    </g>
    <g id="Union_1" data-name="Union 1" transform="translate(5567 209)" fill="#fff">
      <path d="M -4048.999755859375 20.9996223449707 C -4049.55126953125 20.9996223449707 -4050 20.55141258239746 -4050 20.00049209594727 L -4050 12.63977241516113 L -4050 11.63977241516113 L -4051 11.63977241516113 L -4058 11.63977241516113 C -4058.551513671875 11.63977241516113 -4059 11.19110202789307 -4059 10.63962173461914 C -4059 10.08870220184326 -4058.551513671875 9.64049243927002 -4058 9.64049243927002 L -4051 9.64049243927002 L -4050 9.64049243927002 L -4050 8.64049243927002 L -4050 2.000152111053467 C -4050 1.44867217540741 -4049.55126953125 1.000002145767212 -4048.999755859375 1.000002145767212 C -4048.4482421875 1.000002145767212 -4047.99951171875 1.44867217540741 -4047.99951171875 2.000152111053467 L -4047.99951171875 8.64049243927002 L -4047.99951171875 9.64049243927002 L -4046.99951171875 9.64049243927002 L -4039.99951171875 9.64049243927002 C -4039.44873046875 9.64049243927002 -4039.00048828125 10.08870220184326 -4039.00048828125 10.63962173461914 C -4039.00048828125 11.19110202789307 -4039.44873046875 11.63977241516113 -4039.99951171875 11.63977241516113 L -4046.99951171875 11.63977241516113 L -4047.99951171875 11.63977241516113 L -4047.99951171875 12.63977241516113 L -4047.99951171875 20.00049209594727 C -4047.99951171875 20.55141258239746 -4048.4482421875 20.9996223449707 -4048.999755859375 20.9996223449707 Z" stroke="none"/>
      <path d="M -4048.99951171875 20.00049209594727 L -4048.99951171875 12.63977241516113 L -4048.99951171875 10.64049243927002 L -4048.99951171875 8.64049243927002 L -4049 2.000152111053467 L -4049 8.64049243927002 L -4049 10.64049243927002 L -4049 12.63977241516113 L -4049.00244140625 19.99950218200684 C -4049.00244140625 19.99950218200684 -4049.001708984375 19.9996223449707 -4048.999755859375 19.9996223449707 L -4048.99951171875 20.00049209594727 M -4048.999755859375 21.9996223449707 C -4050.104248046875 21.9996223449707 -4051 21.10501289367676 -4051 20.00049209594727 L -4051 12.63977241516113 L -4058 12.63977241516113 C -4059.1044921875 12.63977241516113 -4060 11.74414253234863 -4060 10.63962173461914 C -4060 9.535101890563965 -4059.1044921875 8.64049243927002 -4058 8.64049243927002 L -4051 8.64049243927002 L -4051 2.000152111053467 C -4051 0.8956321477890015 -4050.104248046875 2.126159643012215e-06 -4048.999755859375 2.126159643012215e-06 C -4047.895263671875 2.126159643012215e-06 -4046.99951171875 0.8956321477890015 -4046.99951171875 2.000152111053467 L -4046.99951171875 8.64049243927002 L -4039.99951171875 8.64049243927002 C -4038.89501953125 8.64049243927002 -4038.00048828125 9.535101890563965 -4038.00048828125 10.63962173461914 C -4038.00048828125 11.74414253234863 -4038.89501953125 12.63977241516113 -4039.99951171875 12.63977241516113 L -4046.99951171875 12.63977241516113 L -4046.99951171875 20.00049209594727 C -4046.99951171875 21.10501289367676 -4047.895263671875 21.9996223449707 -4048.999755859375 21.9996223449707 Z" stroke="none" fill="#fff"/>
    </g>
  </g>
</svg>
