<svg xmlns="http://www.w3.org/2000/svg" width="26.577" height="23" viewBox="0 0 26.577 23">
  <g id="Group_61" data-name="Group 61" transform="translate(-3866 56)">
    <path id="Path_97" data-name="Path 97" d="M289.538,111.56l-4.56-4.56a1.14,1.14,0,0,0-1.946.806v3.42H274.2a1.14,1.14,0,1,0,0,2.28h8.831v3.42a1.14,1.14,0,0,0,1.946.806l4.56-4.56a1.139,1.139,0,0,0,0-1.612Zm0,0" transform="translate(3602.705 -156.424)" fill="#6957e1"/>
    <g id="Subtraction_2" data-name="Subtraction 2" transform="translate(3866 -56)" fill="#6957e1">
      <path d="M 14.00039958953857 22.00040054321289 L 3.999599933624268 22.00040054321289 C 2.857535362243652 22.00040054321289 1.862487554550171 21.3586254119873 1.355946898460388 20.41669845581055 C 1.862562894821167 21.3582706451416 2.857560157775879 21.99970054626465 3.999599933624268 21.99970054626465 L 14.00039958953857 21.99970054626465 C 15.14243984222412 21.99970054626465 16.13743782043457 21.3582706451416 16.64405250549316 20.41669845581055 C 16.13751220703125 21.3586254119873 15.14246463775635 22.00040054321289 14.00039958953857 22.00040054321289 Z" stroke="none"/>
      <path d="M 14.00039958953857 23.00040054321289 L 3.999599933624268 23.00040054321289 C 1.794209957122803 23.00040054321289 0 21.20578002929688 0 18.99990081787109 L 0 3.999600172042847 C 0 1.794210314750671 1.794209957122803 2.716064386731887e-07 3.999599933624268 2.716064386731887e-07 L 14.00039958953857 2.716064386731887e-07 C 16.20578956604004 2.716064386731887e-07 18 1.794210314750671 18 3.999600172042847 L 18 8.000100135803223 L 16.00020027160645 8.000100135803223 L 16.00020027160645 3.999600172042847 C 16.00020027160645 2.896910190582275 15.10309028625488 1.999800324440002 14.00039958953857 1.999800324440002 L 3.999599933624268 1.999800324440002 C 2.896909952163696 1.999800324440002 1.999799966812134 2.896910190582275 1.999799966812134 3.999600172042847 L 1.999799966812134 18.99990081787109 C 1.999799966812134 20.10259056091309 2.896909952163696 20.99970054626465 3.999599933624268 20.99970054626465 L 14.00039958953857 20.99970054626465 C 15.10309028625488 20.99970054626465 16.00020027160645 20.10259056091309 16.00020027160645 18.99990081787109 L 16.00020027160645 16.00020027160645 L 18 16.00020027160645 L 18 18.99990081787109 C 18 21.20578002929688 16.20578956604004 23.00040054321289 14.00039958953857 23.00040054321289 Z" stroke="none" fill="#6957e1"/>
    </g>
  </g>
</svg>
